<?xml version="1.0" encoding="utf-8"?>
<!-- Generator: Adobe Illustrator 16.0.4, SVG Export Plug-In . SVG Version: 6.00 Build 0)  -->
<!DOCTYPE svg PUBLIC "-//W3C//DTD SVG 1.1//EN" "http://www.w3.org/Graphics/SVG/1.1/DTD/svg11.dtd">
<svg version="1.1" id="Layer_1" xmlns="http://www.w3.org/2000/svg" xmlns:xlink="http://www.w3.org/1999/xlink" x="0px" y="0px"
	 width="600px" height="600px" viewBox="0 0 600 600" enable-background="new 0 0 600 600" xml:space="preserve">
<g>
	<path fill="#4A5B99" d="M300.434,216.712l0.152-174.109l-1.157-10.652l-19.081,187.196c6.413-1.582,13.112-2.437,20.014-2.437
		C300.387,216.711,300.411,216.712,300.434,216.712z"/>
	<path fill="#506EFC" d="M319.793,219.014l-19.207-176.41l-0.152,174.109C307.103,216.718,313.579,217.527,319.793,219.014z"/>
	<path fill="#919DA5" d="M280.207,380.818l18.749,187.23l1.183-10.667l0.151-174.097C293.363,383.28,286.64,382.417,280.207,380.818
		z"/>
	<path fill="#86888A" d="M300.29,383.286l-0.151,174.097l19.514-176.364c-6.194,1.47-12.646,2.271-19.29,2.271
		C300.338,383.288,300.314,383.286,300.29,383.286z"/>
</g>
</svg>
